<svg xmlns="http://www.w3.org/2000/svg" xmlns:xlink="http://www.w3.org/1999/xlink" viewBox="0 0 750 500" xmlns:v="https://vecta.io/nano"><style><![CDATA[.B{fill:#263238}.C{fill:#ffbe9d}.D{fill:#eb996e}.E{fill:#e0e0e0}.F{fill:#fff}.G{fill:#10266B}.H{opacity:.3}.I{fill:#455a64}.J{fill:#a5695f}.K{fill:#83534b}.L{fill:#fafafa}]]></style><path d="M432.62 243.66h227.56v169H432.62z" class="F"/><path d="M660.18 412.67l-.22-169 .22.22H432.64h0l.26-.26v169l-.24-.24 227.56.24-227.56.23h-.23v-.23-169-.26h.28 227.54.21v.21l-.28 169.09z" class="B"/><path d="M660.18 268.7c0 .15-50.83.27-113.53.27s-113.53-.12-113.53-.27 50.82-.26 113.53-.26l113.53.26zm-213.74-12.62a3.43 3.43 0 1 1-3.42-3.42 3.42 3.42 0 0 1 3.42 3.42zm10.33 0a3.43 3.43 0 1 1-3.43-3.42 3.43 3.43 0 0 1 3.43 3.42zm10.32 0a3.43 3.43 0 1 1-3.42-3.42 3.42 3.42 0 0 1 3.42 3.42zm88.29-25.02a6 6 0 0 0-6-3.33 8.14 8.14 0 0 0-10-.31 7.24 7.24 0 0 0-11.2 5.37 6 6 0 0 0-5.78 9.91 5.81 5.81 0 0 0 1.89 11.41L554 237.79a6 6 0 0 0 1.38-6.73z" class="E"/><path d="M523.36 254.88A24.65 24.65 0 0 1 549 233.46l1.27.06c13.71 1.49 20.11 14 18.24 27.63l-4.26 45.69-.23 2.21-32 4.79.63-11.67s-13.12-2.71-12.63-15.94c.23-6.38 1.79-19.5 3.34-31.35z" class="C"/><path d="M532.53,302.15a32.17,32.17,0,0,0,17.57-4.21s-4.55,9.31-17.68,7.46Z" class="D"/><path d="M526.23 267.74a1.89 1.89 0 0 0 1.72 2 1.8 1.8 0 0 0 2-1.61 1.88 1.88 0 0 0-1.72-2 1.8 1.8 0 0 0-2 1.61zm-.35-6.25c.22.26 1.71-.73 3.74-.62s3.47 1.19 3.7 1-.1-.56-.73-1.07a5.2 5.2 0 0 0-3-1.07 5 5 0 0 0-3 .8c-.59.41-.82.85-.71.96zm18.27 7.51a1.9 1.9 0 0 0 1.73 2 1.82 1.82 0 0 0 2-1.61 1.89 1.89 0 0 0-1.72-2 1.82 1.82 0 0 0-2.01 1.61zm1.68-6.14c.22.26 1.7-.73 3.73-.62s3.47 1.2 3.7 1-.1-.56-.72-1.07a5.26 5.26 0 0 0-2.95-1.07 5 5 0 0 0-3 .8c-.59.41-.87.85-.76.96zm-8.12 14.7a13.11 13.11 0 0 0-3.27-.76c-.52-.08-1-.21-1.07-.57a2.62 2.62 0 0 1 .42-1.52l1.73-3.87c2.41-5.52 4.18-10.06 4-10.16s-2.36 4.3-4.77 9.82l-1.66 3.9a3 3 0 0 0-.37 2 1.29 1.29 0 0 0 .81.8 3.58 3.58 0 0 0 .87.17 13.75 13.75 0 0 0 3.31.19zm5.91 1.7c-.33 0-.45 2.17-2.41 3.64s-4.3 1.11-4.33 1.42c0 .14.5.45 1.49.53a5.5 5.5 0 0 0 3.61-1.06 4.78 4.78 0 0 0 1.88-3.06c.14-.92-.09-1.48-.24-1.47z" class="B"/><path d="M545.7 254.88c.17.56 2.21.4 4.58.8s4.26 1.15 4.61.68c.15-.23-.16-.77-.91-1.34a8.11 8.11 0 0 0-7-1.13c-.89.31-1.35.72-1.28.99zm-18.78.77c.34.48 1.76.07 3.44.13s3.09.47 3.45 0c.15-.23 0-.7-.65-1.17a4.78 4.78 0 0 0-2.76-.89 4.72 4.72 0 0 0-2.79.79c-.61.49-.84.91-.69 1.14zm-1.98-6.76s3.89-8.11 8-9.84c5-2.1 6.76 3.31 11.43 2.25s9.39-3.07 13.92.72c5 4.15 2.41 6.77 2.44 12.65.11 23.83 4.11 30.77 5.91 19.64.19-1.22 3.64-2 4.41-7.19 1-6.69 1.65-14.84.39-19.68-1.07-4.08-3.22-7-7.18-10.24-6.26-5.2-15.18-5.71-21.26-5.4s-18.1 6.7-18.06 17.09z" class="E"/><path d="M565.79 273.9a3.6 3.6 0 0 1 4.05-3.26c2.45.36 5.12 1.89 4.71 7-.74 9-9.65 6.42-9.64 6.16s.54-6.12.88-9.9z" class="C"/><path d="M567.15 280.54s.15.13.4.27a1.58 1.58 0 0 0 1.18.12c1-.27 1.9-1.72 2.08-3.34a5.19 5.19 0 0 0-.26-2.29 1.81 1.81 0 0 0-1.08-1.3.79.79 0 0 0-1 .36c-.14.24-.1.42-.15.43s-.18-.16-.08-.53a1 1 0 0 1 .4-.54 1.2 1.2 0 0 1 .89-.15 2.2 2.2 0 0 1 1.53 1.53 5.36 5.36 0 0 1 .34 2.56c-.21 1.81-1.28 3.44-2.61 3.71a1.73 1.73 0 0 1-1.42-.36c-.22-.25-.25-.45-.22-.47z" class="D"/><path d="M566.48,256.39a8.6,8.6,0,0,1-3.91,1.58,3,3,0,0,1-3.17-2.24c-.07-.63.12-1.36-.27-1.86s-1.39-.47-2.15-.43A5.77,5.77,0,0,1,551.2,249c-.72,1-2.28.85-3.26.15a13.22,13.22,0,0,1-2.33-2.76,3.72,3.72,0,0,0-3-1.71,8.56,8.56,0,0,1-2,.34c-1.18-.16-1.69-1.58-1.81-2.77s-.2-2.57-1.17-3.26-2.13-.35-3.23-.25-2.49-.22-2.72-1.3a2.13,2.13,0,0,1,.49-1.62,5.86,5.86,0,0,1,7-1.87,7.94,7.94,0,0,1,14.65-.81,8.06,8.06,0,0,1,12.72,3.57,5.84,5.84,0,0,1,6.16,8.82,5.53,5.53,0,0,1,2.83,4.56c-.06,1.87-2,3.64-3.75,3.06a3.24,3.24,0,0,1-5.75,3" class="E"/><path d="M572.44 253.18a2.16 2.16 0 0 1-.65 1.7 2.88 2.88 0 0 1-1.86 1 3.13 3.13 0 0 1-2.54-.87h.38a8.91 8.91 0 0 1-1.91 2.16 5.18 5.18 0 0 1-1.7.94 3.48 3.48 0 0 1-1.83.08 3.52 3.52 0 0 1-2.53-1.62 5.26 5.26 0 0 1-.64-1.92 1.71 1.71 0 0 1 0-.73s.1.24.23.69a6.07 6.07 0 0 0 .75 1.76 3.69 3.69 0 0 0 5.42.4 9.13 9.13 0 0 0 1.83-2l.17-.26.21.22a2.74 2.74 0 0 0 2.15.8 2.63 2.63 0 0 0 1.67-.78 4.4 4.4 0 0 0 .85-1.57zm-16.05-21.49s-.24.05-.65.2a3.17 3.17 0 0 0-1.46 1.13l-.12.16-.16-.18a11.22 11.22 0 0 0-4.19-3.76 8.82 8.82 0 0 0-3.52-.95 7.45 7.45 0 0 0-6.26 2.95 6.14 6.14 0 0 0-1.13 2.67l-.05.29-.27-.09a5 5 0 0 0-3.77.27 4.91 4.91 0 0 0-2.17 2.1 6.77 6.77 0 0 0-.69 2.65 1.81 1.81 0 0 1-.08-.75 5.31 5.31 0 0 1 .51-2 5.13 5.13 0 0 1 2.25-2.32 5.38 5.38 0 0 1 4.1-.37l-.31.2a6.56 6.56 0 0 1 1.2-2.92 7.88 7.88 0 0 1 6.7-3.15 9.08 9.08 0 0 1 3.7 1.06 10.93 10.93 0 0 1 4.22 4h-.23a3.08 3.08 0 0 1 1.65-1.1 1.36 1.36 0 0 1 .73-.09z" class="F"/><path d="M546.66 280.73c-.15 0-.16-1-.89-1.79s-1.64-1-1.62-1.15.26-.13.66 0a2.63 2.63 0 0 1 1.36.86 2.59 2.59 0 0 1 .63 1.47c.02.37-.08.62-.14.61zm.92-2.46c-.13.07-.44-.26-.91-.49s-.91-.33-.93-.47.55-.32 1.17 0 .8.91.67.96zm9.74 21.73s.14-.06.26-.23a.8.8 0 0 0 .06-.79c-.13-.35-.53-.67-.78-1.27a1.19 1.19 0 0 1 .06-1.05 7.74 7.74 0 0 1 .62-.75c.74-.86-1.28-1.57-1-2.71a1.46 1.46 0 0 1 .53-.95c.22-.14.36-.16.38-.13a1.79 1.79 0 0 0-.54 1.11 1.39 1.39 0 0 0 .62 1.09 2.26 2.26 0 0 1 .57.78 1.11 1.11 0 0 1-.17 1.13 9 9 0 0 0-.6.69.73.73 0 0 0-.05.63c.15.45.54.84.67 1.3a1 1 0 0 1-.26 1.07c-.2.08-.38.08-.37.08zm2.82-.35s0-.13-.1-.33a3.44 3.44 0 0 0-.47-.78 3.17 3.17 0 0 1-.36-.59 1.27 1.27 0 0 1-.09-.89c.18-.65.73-1 1-1.49s.07-.85-.3-1.26a2.71 2.71 0 0 1-.46-.68 1.67 1.67 0 0 1-.11-.74c.12-.94.77-1.19.77-1.13a2.44 2.44 0 0 0-.4 1.14 1.55 1.55 0 0 0 .56 1.1 2.27 2.27 0 0 1 .53.76 1.24 1.24 0 0 1-.14 1.08c-.38.59-.87.93-1 1.35a1.51 1.51 0 0 0 .3 1.16 2.32 2.32 0 0 1 .36.94c.02.25-.06.37-.09.36z" class="D"/><path d="M582.37 372.64l12 11.56-3.88-22.11 24.35-7.7 7.59 37.52c2 12.87-.46 31.18-12.46 32.47-13 1.39-22.79-11.41-29-19.82-4.79-6.46-12.53-17.75-12.53-17.75l14-14.17M489.62 353c-3.91 12.3-9.37 14.16-11.53 49.4-.42 6.87 1.07 16 7.58 18.26 7.25 2.46 18.33-2 21.8-8V388.4z" class="E"/><path d="M505.76 404.44a55.59 55.59 0 0 0-2.4-5.17 51.26 51.26 0 0 0-3.31-4.65 4.88 4.88 0 0 1 1.26 1.13 18.35 18.35 0 0 1 2.42 3.3 18.65 18.65 0 0 1 1.67 3.74 5.35 5.35 0 0 1 .36 1.65z" class="B"/><g class="E"><path d="M483.74 367.16c.2-.73 12.22-33.44 16.05-40.6C504.38 318 514 314.21 520 313.84s70 4.73 70 4.73 17.94 4.51 21.57 20.74c4.55 20.36 8.21 40.43 8.21 40.43l-32.1 6.93-3.77-9.51-60.31 13.45-14.7-21.78z"/><path d="M594.26 320.44l-25.01-11.03-2.81-10.79-29.2 13.81-6.11-6.76-2.56 7.62-6.4 2.09-12.59 24.82-2.32 57.53.21 14.94 86.3.57-.7-24.46 1.19-68.34z"/><path d="M566.44 298.62s-3.26.95-11.65 5.42c-8.21 4.38-17.55 8.39-17.55 8.39l.71 13.18L569 310m-37.87-4.33l6.11 6.76-3.27 14.13-5.44-12.77"/></g><g class="H"><path d="M537.13,313.88c-.27.21-2,16.32-2,16.32l31.15-18.82L538,325.61Z"/></g><path d="M537.41,412.86s-.64-23.88-.07-38.85c.47-12.33-1.47-43.76-1.47-43.76l-4.06-.65a458,458,0,0,0-10.42,68l-1.15,15.15" class="G"/><path d="M586.86 349.49a6.43 6.43 0 0 1 .29 1.27l.64 3.5 2 11.55 1.9 11.57.5 3.52a8.14 8.14 0 0 1 .12 1.3 7.83 7.83 0 0 1-.29-1.28l-.63-3.49-2-11.55-1.87-11.57-.49-3.52a7.8 7.8 0 0 1-.17-1.3zm9.26-27.15c0 .07-.84.76-2.1 2.06a25.4 25.4 0 0 0-6.6 12.28l-.56 2.89a2.76 2.76 0 0 1 0-.8 15 15 0 0 1 .26-2.15 22.93 22.93 0 0 1 6.68-12.44 15.62 15.62 0 0 1 1.66-1.4 3.27 3.27 0 0 1 .66-.44z" class="B"/><path d="M537.34 318.73l-2.78-1.08-2.64 4.52-.47 7.43 3.71.59 2.79-4.58-.61-6.88z" class="G"/><g class="B"><path d="M507.26 340.83c.12 0 .21 16.08.21 35.92l-.21 35.92c-.12 0-.22-16.08-.22-35.92l.22-35.92zm30.28-28.52c.05 0-.6 1-1.59 2.69l-3.54 6.62-.29.64-.2.42-.19-.42a50.76 50.76 0 0 1-2.6-6.58l-.58-2a2.57 2.57 0 0 1-.14-.77c.06 0 .39 1 1 2.71a69.78 69.78 0 0 0 2.71 6.5h-.39l.29-.64a54.55 54.55 0 0 1 3.67-6.6l1.3-1.88a3.06 3.06 0 0 1 .55-.69zm31.71-2.9l-.43.26-1.26.66-4.64 2.4c-3.92 2-9.28 4.94-15.23 8.12l-10 5.2-.27.14v-.3l-.09-9.49v-2.67a5 5 0 0 1 0-1 5.45 5.45 0 0 1 .08.94c0 .68.06 1.57.1 2.68l.25 9.48-.28-.17 10-5.25 15.29-8 4.7-2.29 1.3-.58a2.42 2.42 0 0 1 .48-.13zM511 319.57c.06 0-.43.87-1.06 2.28a25.86 25.86 0 0 0-1.78 5.73 25.37 25.37 0 0 0-.38 6l.18 2.5a1.89 1.89 0 0 1-.19-.65 13.31 13.31 0 0 1-.29-1.83 21.74 21.74 0 0 1 2.18-11.87 15.36 15.36 0 0 1 .92-1.61l.42-.55zm23.48 11.11c-.06.1-.77-.23-1.58-.74s-1.41-1-1.34-1.11.77.23 1.57.74 1.41 1.01 1.35 1.11z"/><path d="M535.82,328.86a40.7,40.7,0,0,1-3.38-7.69,42.48,42.48,0,0,1,3.38,7.69Z"/></g><g class="H"><path d="M553.41 394.65a2.79 2.79 0 0 0-1-1.82c-1-.67-2.33.21-3.39.84-2.78 1.66-6.22 1.6-9.46 1.46a239.37 239.37 0 0 1-29.15-2.77c-4.71-.79-9.47-1.82-13.69-4.08s-7.89-5.89-9.25-10.47l-2.25-1.23c1.75 3.73 1.57 14.28 2.19 18.35s2.43 7 6.35 8.24a13.76 13.76 0 0 0 4.92.34c16.06-.79 32.27-.07 48.33-.86 2.29-.12 5-.43 6.18-2.37 1.08-1.63.67-3.75.22-5.63z"/></g><path d="M613.76 403.82a.93.93 0 0 1-.11-.19l-.29-.56-.47-.93-.79-1.14a43.18 43.18 0 0 0-6.23-6.78c-2.91-2.67-6.59-5.67-10.73-9.11-2.06-1.73-4.26-3.55-6.46-5.57a60.34 60.34 0 0 1-6.47-6.74h.31L570 385.86l-1.67 1.75v-.28c4.73 6.92 9 13.61 13.55 19.22a92.63 92.63 0 0 0 6.8 7.6 57.63 57.63 0 0 0 6.62 5.89c4.32 3.26 8.66 4.67 11.68 4.59h1.07l.93-.1.79-.09.65-.15.88-.19.31-.05-.29.09-.88.24-.65.17-.8.1-.93.12h-1.08c-3 .12-7.48-1.26-11.86-4.52a56.23 56.23 0 0 1-6.69-5.88 91.67 91.67 0 0 1-6.86-7.61c-4.55-5.61-8.87-12.31-13.59-19.21l-.1-.15.12-.12 1.67-1.75 12.52-13.07.17-.17.14.19a61.27 61.27 0 0 0 6.42 6.7c2.18 2 4.36 3.85 6.41 5.59 4.13 3.45 7.8 6.49 10.68 9.19a40.91 40.91 0 0 1 6.18 6.89l.77 1.21.43 1 .26.58c.06.15.12.18.11.18z" class="B"/><g class="H"><path d="M571.28 391.37l-1.36-.41c1.17 6.75 4.87 16.3 8.22 22.28h9.76c-3.7-4.62-16.62-21.87-16.62-21.87z"/></g><path d="M580.45,374.54,560.7,353l-11.84-2.25-13.44,1.71a2.88,2.88,0,0,0,1.7,3.26l-5,.28a2.82,2.82,0,0,0,1.84,3.69l-3.55.63a5.1,5.1,0,0,0,5.54,2.92,76.94,76.94,0,0,1,10.49-.71l7,3.83-10.36-.43-7.52,1.42s-1,1.93.71,2.38,8.23,0,8.23,0l9.38,3s3.67,5.21,5,6.63,7.37,4,7.37,4l3,2.69Z" class="C"/><path d="M532.16 356a18.26 18.26 0 0 0 3.85-.14l9.26-.88 3.46-.39h-.14l6.69 1.8a11.77 11.77 0 0 0 2.69.54 11 11 0 0 0-2.56-1l-6.61-2.06h-.07-.08l-3.46.36-9.23 1.11a20.29 20.29 0 0 0-3.8.66zm-.86 4.14a16.8 16.8 0 0 0 3.5-.24l8.36-1.11 3.24-.49h-.19l8.17 2.87c.07-.13-3.27-1.65-7.89-3.56h-.09-.11l-3.24.46-8.33 1.33a15.1 15.1 0 0 0-3.42.74z" class="D"/><path d="M481 356.78l10 37.82a4.69 4.69 0 0 0 4.64 3.5l51.84-1a4.7 4.7 0 0 0 4.51-5.67l-7.64-36.22a4.68 4.68 0 0 0-4.6-3.73h-54.61a4.23 4.23 0 0 0-4.14 5.3z" class="B"/><path d="M514.92 366.7a2.54 2.54 0 1 1-3.66 1 2.69 2.69 0 0 1 3.66-1z" class="F"/><path d="M477.27 365.06a3.38 3.38 0 0 1 0-4.16 5.17 5.17 0 0 1 3.93-1.9 11.46 11.46 0 0 1 4.39.91 28.59 28.59 0 0 1 5 2.49 4.73 4.73 0 0 1 2.49 2.9c.21 1.29-1.19 2.77-2.33 2.12a5.51 5.51 0 0 1 3.21 3.83c.24 1.64-.64 2.52-2.22 3a2.48 2.48 0 0 1 1.42 3.16 2.83 2.83 0 0 1-3.55 1.08 8.19 8.19 0 0 1-3.09-2.59 7.6 7.6 0 0 1 .88 5.2 10.18 10.18 0 0 1-6.65-8.17 4.7 4.7 0 0 1-1.28-5.78 4.89 4.89 0 0 1-2.9-4.07" class="C"/><path d="M491.69 374.29a13.76 13.76 0 0 1-1.52-1.16 10.21 10.21 0 0 0-4-2 5.53 5.53 0 0 0-2.43 0 4.4 4.4 0 0 0-1.74.87 6 6 0 0 0-1.16 1.45s0-.19.14-.5a3.48 3.48 0 0 1 .84-1.16 4.47 4.47 0 0 1 1.86-1 5.54 5.54 0 0 1 2.6 0 9.43 9.43 0 0 1 4.08 2.21 7.21 7.21 0 0 1 1.33 1.29zm-.39-6.68a8.24 8.24 0 0 1-1.84-.77l-2-.85a16.82 16.82 0 0 0-2.52-.65 7.13 7.13 0 0 0-2.56 0 4.7 4.7 0 0 0-1.89.82 4.77 4.77 0 0 0-1.24 1.48s0-.2.15-.52a3.34 3.34 0 0 1 .92-1.17 4.63 4.63 0 0 1 2-1 7.15 7.15 0 0 1 2.69 0 13.81 13.81 0 0 1 2.58.7 17.34 17.34 0 0 1 2 .94 13.51 13.51 0 0 1 1.71 1.02z" class="D"/><path d="M339.5 43.28h227.56v166.36H339.5z" class="F"/><path d="M567.06 209.64l-.22-166.36.22.21H339.52h0l.26-.26v166.36l-.24-.24 227.56.24-227.56.24h-.24v-.24V43.23 43h.28 227.54.21v.21l-.27 166.43z" class="B"/><path d="M567.83 67.49c0 .14-50.84.26-113.53.26s-113.53-.12-113.53-.26 50.82-.26 113.53-.26l113.53.26zM354.09 54.87a3.43 3.43 0 1 1-3.43-3.43 3.43 3.43 0 0 1 3.43 3.43zm10.33 0a3.43 3.43 0 1 1-3.42-3.43 3.44 3.44 0 0 1 3.42 3.43zm10.32 0a3.43 3.43 0 1 1-3.42-3.43 3.43 3.43 0 0 1 3.42 3.43z" class="E"/><path d="M354.29,109.14l1.44-.92a5.4,5.4,0,0,1,7.63,2c2.31,4.21,5.18,10.08,5.18,10.08l-6.07,9.6-2,.06c-2.2,1.41-7.36-1.44-10.85-3.55s-1.77-4.25-1.77-4.25c-2.18-3,.83-4.25.83-4.25a3.25,3.25,0,0,1,.89-4.6" class="C"/><path d="M307.423 87.175l43.842-8.403 11.767 61.393-43.842 8.403z" class="F"/><g class="B"><path d="M319.19 148.58l-.06-.28q-.08-.3-.18-.84l-.66-3.31-2.47-12.56-8.62-44.36-.05-.23h.23l43.84-8.43h0 .26v.26l11.71 61.4v.21h-.21l-32 6-8.71 1.56-2.3.41-.78.13.81-.18 2.33-.47 8.84-1.75L363 140l-.16.25-11.82-61.38.31.2h0l-43.84 8.38.19-.27 8.36 44.25 2.34 12.57.61 3.37.16.87a1.67 1.67 0 0 1 .04.34zm-4.44-47.33c0-.14 7.21-1.64 16.16-3.36s16.23-3 16.26-2.85S340 96.69 331 98.4l-16.25 2.85zm.83 4.34c0-.14 7.21-1.65 16.16-3.36s16.23-3 16.26-2.86-7.21 1.65-16.16 3.37-16.24 2.99-16.26 2.85zm.83 4.33c0-.14 7.21-1.64 16.16-3.36s16.24-3 16.26-2.85-7.21 1.65-16.16 3.36-16.24 2.99-16.26 2.85zm.83 4.34c0-.14 7.21-1.65 16.16-3.36s16.24-3 16.26-2.86-7.21 1.65-16.16 3.37-16.23 2.99-16.26 2.85zm.83 4.33c0-.14 7.21-1.64 16.16-3.36s16.24-3 16.26-2.85-7.2 1.65-16.16 3.36-16.23 2.99-16.26 2.85zm.83 4.34c0-.14 7.21-1.65 16.16-3.36s16.24-3 16.26-2.86-7.2 1.65-16.16 3.37-16.23 2.99-16.26 2.85zm.83 4.33c0-.14 7.21-1.64 16.16-3.36s16.24-3 16.27-2.85-7.16 1.65-16.16 3.36l-16.27 2.85zm.83 4.34c0-.14 7.21-1.65 16.16-3.36s16.24-3 16.27-2.86-7.21 1.65-16.17 3.37-16.23 2.99-16.26 2.85zm.83 4.33c0-.14 7.21-1.64 16.16-3.36s16.24-3 16.27-2.85-7.21 1.65-16.17 3.36-16.23 2.99-16.26 2.85z"/><path d="M345.23 82.21a4.26 4.26 0 0 1 .32 1.09l.66 3 .21 1a2.46 2.46 0 0 1-4.83.94l-.14-.71-.28-1.45q-.27-1.45-.54-2.85l-.25-1.35a4.83 4.83 0 0 1-.14-1.38 3.23 3.23 0 0 1 1.19-2.26 3.28 3.28 0 0 1 2.1-.72 3.14 3.14 0 0 1 2.66 1.59 2.58 2.58 0 0 1 .29.81v.3a7.87 7.87 0 0 0-.49-1 3 3 0 0 0-2.48-1.33 2.89 2.89 0 0 0-1.83.68 2.84 2.84 0 0 0-1 2 4.66 4.66 0 0 0 .15 1.24l.26 1.36.55 2.85.28 1.44.13.71a1.93 1.93 0 0 0 .22.58 2 2 0 0 0 2 1 2 2 0 0 0 1.6-1.35 2.09 2.09 0 0 0 .08-1l-.17-1-.5-3a5.2 5.2 0 0 1-.05-1.19z"/></g><path d="M358.28,107.39c-.33,0-13.32,2-13.32,2-.23,1.2.47,2.89,3.53,2.94,2.9.05,5.52-.2,5.52-.2s3.21,6.7,6.37,7.45,1.61-6.44,1.61-6.44h0Z" class="C"/><path d="M507.14 65.09c1.13-2.62 2.27-5.32 2.38-8.19s-1.07-6-3.55-7.27c-2.28-1.2-5.09-.64-7.52-1.5-3-1.07-4.88-4.09-6.21-7.05s.52-4-1.73-6.35c-3-3-4.92-3.49-8.69-1.63-2.71-1.92-12.14-5.4-14.86-5.49-4-.12-8.62.2-11.44 3.09-2.18 2.24-3.57 5.1-6.25 6.71-3.69 2.22-8.39.33-12.69.49a2.46 2.46 0 0 0-2.27 1.1 2.66 2.66 0 0 0 .35 2.17l3.34 6.9a6.58 6.58 0 0 1-5.76-.14 19.54 19.54 0 0 0 5.11 12.31 1.66 1.66 0 0 0-2.29.88 4.19 4.19 0 0 0 0 2.75 20.15 20.15 0 0 0 27.36 13.26l23.72 1.79a6 6 0 0 0 4.09 3.8c2.65-2 3.08-3.07 3.08-3.07 1.63 1.21.35.6 1.63 1.21 2.94 1.4 7.29-.26 8-3.54a6.91 6.91 0 0 1 1.57-3.61 12.38 12.38 0 0 1 3.49-1.92 9.7 9.7 0 0 0 4.34-4.45 7 7 0 0 1-5.2-2.25z" class="B"/><path d="M490.36 54.92l.61 49c.1 8.32-1.45 20.57-14.62 20.14h0c-11.4-1.24-14.43-12-14.51-19.8 0-3.69-.09-6.76-.12-7.14 0 0-12.48-1-13.53-13.35-.51-5.95-.56-18.31-.47-29.48a23 23 0 0 1 21.37-22.79l1.19-.09c12.89-.22 20.25 10.59 20.08 23.51z" class="C"/><path d="M461.72,97.09a29.89,29.89,0,0,0,15.72-5.92s-3.26,9.29-15.65,9.08Z" class="D"/><path d="M468.79 59.31c.24.25 1.67-.9 3.73-1s3.61 1 3.83.69-.15-.57-.83-1a5.19 5.19 0 0 0-3.07-.87 5 5 0 0 0-3 1.08c-.58.52-.78.99-.66 1.1zm-.37 4.59a1.66 1.66 0 0 0 1.73 1.56 1.58 1.58 0 0 0 1.6-1.62 1.66 1.66 0 0 0-1.75-1.57 1.59 1.59 0 0 0-1.58 1.63zm-4.8 9.77a13.58 13.58 0 0 0-3.12-.33c-.49 0-1-.07-1.06-.4a2.43 2.43 0 0 1 .22-1.46l1.16-3.79c1.6-5.39 2.73-9.81 2.51-9.87s-1.7 4.25-3.3 9.65l-1.1 3.81a2.81 2.81 0 0 0-.11 1.91 1.18 1.18 0 0 0 .84.65 3.11 3.11 0 0 0 .83.06 12.33 12.33 0 0 0 3.13-.23zm6.05-22.13c.2.46 1.85.12 3.83.22s3.61.54 3.84.1c.1-.21-.21-.63-.88-1a6.47 6.47 0 0 0-5.85-.24c-.69.31-1.03.71-.94.92zm-19.61 3.83c.21.37 1.82 0 3.78-.1s3.57.19 3.78-.2c.09-.19-.24-.52-.92-.82a6.81 6.81 0 0 0-2.88-.47 7 7 0 0 0-2.88.7c-.67.35-.94.71-.88.89z" class="B"/><path d="M490 64.13c.2-.1 8.29-3.12 8.64 5.33s-8.21 7.06-8.24 6.82-.4-12.15-.4-12.15z" class="C"/><path d="M492.87 73s.15.09.41.2a1.49 1.49 0 0 0 1.1 0c.88-.37 1.57-1.82 1.55-3.34a4.81 4.81 0 0 0-.5-2.09 1.7 1.7 0 0 0-1.15-1.09.75.75 0 0 0-.85.44c-.11.24-.05.41-.09.42s-.19-.13-.14-.48a.94.94 0 0 1 .32-.55 1.07 1.07 0 0 1 .8-.24 2 2 0 0 1 1.59 1.24 4.93 4.93 0 0 1 .61 2.34c0 1.7-.79 3.33-2 3.74a1.56 1.56 0 0 1-1.35-.17c-.27-.25-.33-.42-.3-.42z" class="D"/><path d="M465.61 79.53c-.09-.22 1.56-.71 2.73-2.27a9.34 9.34 0 0 0 1.17-2.2c.25-.62.43-1 .52-1s.07.44-.07 1.11a6.21 6.21 0 0 1-1.09 2.47 5 5 0 0 1-2.15 1.65c-.65.29-1.09.31-1.11.24zm35.65-29.08c-1.76-3-2.17-6.54-3.14-9.87s-2.81-6.77-6.07-7.94h-.08c-2.93-1.18-6.54-1.2-8.94.83-.6-4.39-4.45-7.87-8.74-9s-11.17-.46-15.28 1.2c-3.18 1.28-6.25 3.9-10 7.75a41.59 41.59 0 0 0-4.31 5.23L441 50.22a4.55 4.55 0 0 0-1.05 1.05 2.17 2.17 0 0 0 3.17 2.9h0c.38.65.67 1.31 1 2h0l.06.12a13 13 0 0 0 .63 1.23h0l2.88 12.73c.19-3.47-.07-15.54.11-19a19.39 19.39 0 0 0 13.8-6.37c1.89-2.1 3.38-4.73 5.92-6 3.27-1.62 7.16-.44 10.61.76l-.15-.13a15.51 15.51 0 0 1 4.78 3.44 48 48 0 0 0 2.08 20.36c.32 1 1.2 3 2.17 3.39 1.9.73 2.41-1.2 3.55-2.23a5.09 5.09 0 0 1 3.46-.85 76.87 76.87 0 0 0 2.32-8.77 7.75 7.75 0 0 0 3.55.24l-1.1-2.62a4.09 4.09 0 0 0 1.52.69 1.36 1.36 0 0 0 1.44-.63c.31-.71-.12-1.46-.49-2.08z" class="B"/><path d="M479.15 34.93a12 12 0 0 1 1.23 1.13 8.81 8.81 0 0 1 1.9 4.09 16 16 0 0 1 .31 3.14l-.17 3.63a29.83 29.83 0 0 0-.09 4 14.39 14.39 0 0 0 .27 2.14 4.54 4.54 0 0 0 .87 2.07 1.86 1.86 0 0 0 1.74.58 2.8 2.8 0 0 0 1.57-.88 6.47 6.47 0 0 0 1.22-3.1h-.26a10.51 10.51 0 0 0 1.5 2.59 3.7 3.7 0 0 0 2.4 1.3 2.38 2.38 0 0 0 1.27-.22 2 2 0 0 0 .86-.85 2.06 2.06 0 0 0 .26-1.09 1.51 1.51 0 0 0-.39-1l-.13.11a7.78 7.78 0 0 0 2.65 2 7.2 7.2 0 0 0 .84.43 1 1 0 0 0 .29.07 1.2 1.2 0 0 0-.28-.12l-.79-.35a8.29 8.29 0 0 1-2.56-2l-.13.12a1.58 1.58 0 0 1 .08 1.83 1.88 1.88 0 0 1-.78.75 2.13 2.13 0 0 1-1.15.19 3.44 3.44 0 0 1-2.23-1.24 10.5 10.5 0 0 1-1.45-2.6l-.18-.4-.08.43a6.29 6.29 0 0 1-1.13 3 2.53 2.53 0 0 1-1.4.79 1.59 1.59 0 0 1-1.48-.5 4.11 4.11 0 0 1-.81-1.93 13.75 13.75 0 0 1-.27-2.09 33.14 33.14 0 0 1 .07-4l.15-3.65a15.55 15.55 0 0 0-.35-3.18 8.73 8.73 0 0 0-2-4.12 5 5 0 0 0-1.37-1.07zm-38.15 12l.1.08.31.23a6.09 6.09 0 0 0 .52.33 7.36 7.36 0 0 0 .75.39 10.82 10.82 0 0 0 5.28.95 13.91 13.91 0 0 0 7.44-2.74 24 24 0 0 0 6.39-7.37l2.44-4.44a16.37 16.37 0 0 1 2.77-3.75 8.39 8.39 0 0 1 3.56-2.16 5.75 5.75 0 0 1 1.87-.21 6.4 6.4 0 0 1 1.72.33 7.1 7.1 0 0 1 2.57 1.54 7.2 7.2 0 0 1 1.39 1.81 7.91 7.91 0 0 1 .63 1.85v-.13-.38a6.43 6.43 0 0 0-.47-1.39 7.08 7.08 0 0 0-1.46-1.87 7.28 7.28 0 0 0-2.62-1.63 7 7 0 0 0-1.77-.36 6.27 6.27 0 0 0-1.95.21 8.68 8.68 0 0 0-3.67 2.2 16.54 16.54 0 0 0-2.82 3.8l-2.43 4.43a24.25 24.25 0 0 1-6.3 7.3 13.87 13.87 0 0 1-7.3 2.76 11 11 0 0 1-5.22-.85 19.58 19.58 0 0 1-1.73-.93zm-1.12-5.42a2.21 2.21 0 0 0 .44.31 10.38 10.38 0 0 0 1.31.66 12.39 12.39 0 0 0 2.08.68 13.49 13.49 0 0 0 5.32.17 12.63 12.63 0 0 0 2.11-.54 11.66 11.66 0 0 0 1.35-.58 3 3 0 0 0 .46-.28s-.71.3-1.87.66a14.65 14.65 0 0 1-2.1.48 16.48 16.48 0 0 1-2.61.16 15.63 15.63 0 0 1-2.6-.33 13.89 13.89 0 0 1-2.06-.61l-1.83-.78z" class="I"/><path d="M450 60.09c.25.25 1.67-.9 3.74-1s3.6 1 3.82.69-.15-.58-.82-1a5.21 5.21 0 0 0-3.07-.87 4.88 4.88 0 0 0-3 1.08c-.67.52-.83 1.01-.67 1.1zm1.13 4.09a1.67 1.67 0 0 0 1.73 1.56 1.59 1.59 0 0 0 1.61-1.62 1.67 1.67 0 0 0-1.73-1.57 1.61 1.61 0 0 0-1.61 1.63z" class="B"/><g class="I"><path d="M441.77 110l-44.6 29.19L370 118l-8.46 13.41 21.68 24.53c5.86 6.22 9.78 9.53 14.39 8.94s43.24-15.59 43.24-15.59l5.86-40.94-2.46.59a7.66 7.66 0 0 0-2.48 1.06z"/><path d="M491.54 100c-10 6.27-20 8.63-30.22 4.57L446 108.48l-7.44 12.94a11.74 11.74 0 0 0-1.53 6.71l2.97 49.53-9 31.46 88.32.76-4.35-23.37-10.95-84z"/><path d="M505 140.22l-2.76-37.92s20.79 1.92 27.67 16.59l24.9 53.37c5 14.93-4.22 36.71-36.59 35.52l-3.69-20.29z"/></g><g class="B"><path d="M521.65 171.79a9.55 9.55 0 0 0 .51 1.49l1.5 3.5 1.56 3.47a10.91 10.91 0 0 0 .68 1.42 9.1 9.1 0 0 0-.52-1.49l-1.49-3.5-1.56-3.47a11.82 11.82 0 0 0-.68-1.42zm-11.51-29.85c.07 0 .13-2.4.13-5.36l-.13-5.37c-.07 0-.12 2.4-.12 5.37l.12 5.36zm3.06-16.14a2.49 2.49 0 0 0 .19-.6l.5-1.63a26.83 26.83 0 0 1 2.31-5.1 26.23 26.23 0 0 1 3.34-4.5l1.18-1.23a3.26 3.26 0 0 0 .43-.45 2.27 2.27 0 0 0-.49.38 14.78 14.78 0 0 0-1.25 1.18 23.51 23.51 0 0 0-5.69 9.67 14.85 14.85 0 0 0-.42 1.66 3.64 3.64 0 0 0-.1.62zm-73.34-2.35a5.19 5.19 0 0 1 .12 1.24v3.39c0 2.86-.33 6.8-.68 11.14a110.19 110.19 0 0 0-.44 11.11c0 1.42.08 2.58.15 3.37a6.49 6.49 0 0 1 0 1.24 5 5 0 0 1-.23-1.22c-.13-.79-.24-1.94-.32-3.37a85.67 85.67 0 0 1 .29-11.17l.83-11.12.13-3.37a6.56 6.56 0 0 1 .15-1.24zm95.03 55.31a9.87 9.87 0 0 1-1.42.8l-3.86 2.19-5.72 3.29-3.53 1.68-3.86 1.6-1.19.49.16-.29 2.08 13.65.57 4.1a7.33 7.33 0 0 1 .14 1.51 9.46 9.46 0 0 1-.33-1.48l-.73-4.07-2.25-13.62v-.21l.19-.08 1.19-.48 3.86-1.59 3.51-1.64 5.76-3.18s3-1.62 4-2.05l1.11-.49s.31-.15.32-.13z"/><path d="M539.6 172.26c0 .09-1.05.29-2.67.9a20.69 20.69 0 0 0-5.8 3.35 20.42 20.42 0 0 0-4.39 5.06l-1.39 2.45a2.26 2.26 0 0 1 .2-.74 13.32 13.32 0 0 1 .87-1.9 18.38 18.38 0 0 1 10.39-8.57 12.72 12.72 0 0 1 2-.49 2.43 2.43 0 0 1 .79-.06z"/></g><use xlink:href="#B" class="G"/><g class="H"><use xlink:href="#B"/></g><path d="M509.54,191.7l8.19-31.65c.54-2.08-.83-4.17-2.73-4.17H450.85a2.92,2.92,0,0,0-2.73,2.35l-11.91,47.63c-.53,2.09.31,3.35,2.21,3.33H503a2.91,2.91,0,0,0,2.69-2.33Z" class="E"/><path d="M505.11,208l3.49-49.83a3.06,3.06,0,0,0-3.05-3.27H439.08V208Z" fill="#ebebeb"/><path d="M505.85,209.19,498,157.81a3.69,3.69,0,0,0-3.62-2.87H427.09A3.64,3.64,0,0,0,423.7,160l14.52,47Z" class="L"/><path d="M506,209.45l-16.31-48.11a4.83,4.83,0,0,0-4.54-3.35H415.79a3.39,3.39,0,0,0-3.09,4.5l15.17,47Z" class="G"/><g class="H"><path d="M472.44 201.4l3.83.2a35.57 35.57 0 0 0 16.84-3c1.63-.72 3.35-1.75 3.85-3.47.55-1.92-.69-3.92-2.21-5.22s-3.37-2.23-4.68-3.74-1.94-3.94-.65-5.46l.36.27c.94 2.37 3.55 3.52 5.71 4.88a20.13 20.13 0 0 1 8.51 11.07c.76 2.49 1 5.4-.55 7.52a9.36 9.36 0 0 1-4.55 3c-5.25 2-10.85 2-16.45 2-1.76 0-7.19-.08-7.19-.08-1.7-.46-2.27-1.35-3.29-2.79s-.78-4.15.47-5.18z"/></g><path d="M472.44 201.4l18.08-2.72 7-4a3.13 3.13 0 0 0 1.61-2.55V192a3.22 3.22 0 0 0-2-3.06c-2.23-.94-5.75-2.18-7.26-4.82-2.16-3.79 0-4.57 0-4.57l15.1 6 10.69 7.28 2.19 12.17-14.92 4.87s-16.61.94-21.2.43-4.58-2.65-4.58-2.65c-.85-.27-2.58-1.78-2.57-3.19-2.23-2.09-2.14-3.07-2.14-3.07" class="C"/><path d="M495.57 206.62a3.51 3.51 0 0 0-.75.14l-2 .44a44.57 44.57 0 0 1-6.73.8 43.49 43.49 0 0 1-6.76-.28l-2-.28a3.78 3.78 0 0 0-.76-.08 4 4 0 0 0 .74.2c.47.12 1.16.25 2 .38a36.59 36.59 0 0 0 13.57-.53l2-.53a4.05 4.05 0 0 0 .69-.26zm-1.66-2.8a4.47 4.47 0 0 0-.75.15l-2 .43a44.15 44.15 0 0 1-6.84.76 45.51 45.51 0 0 1-6.87-.32l-2.07-.28a3.58 3.58 0 0 0-.76-.09 3.67 3.67 0 0 0 .74.2c.48.12 1.18.25 2.06.39a39.11 39.11 0 0 0 6.91.4 36.19 36.19 0 0 0 6.87-.85 20.73 20.73 0 0 0 2-.53 3 3 0 0 0 .71-.26z" class="D"/><path d="M152.29 291.88h227.56v169H152.29z" class="F"/><path d="M379.85 460.88l-.22-169 .21.21-227.53.05h0l.26-.26v169l-.24-.23 227.56.23-227.56.24h-.24v-.24-169-.26h.28l227.53.05h.22v.21l-.27 169z" class="B"/><g class="E"><path d="M379.85 314.33c0 .15-51 .27-113.8.27s-113.8-.12-113.8-.27 50.94-.26 113.8-.26l113.8.26z"/><circle cx="161.92" cy="302" r="3.35"/><circle cx="172.01" cy="302" r="3.35"/><circle cx="182.1" cy="302" r="3.35"/></g><path d="M354.79 426.87s5.55-7.27 8.16-7.55 19 .28 21.25 0 15.22-5.75 15.22-5.75 2.3.78 2 2.83-14.64 9.81-16.37 10.1-15.5 1.3-15.5 1.3l-3.46 6.2z" class="J"/><path d="M307.21,335.35a8.7,8.7,0,0,0,1.39-15.1l-10.08-3.38q-2.19,19.51-4.64,39a14.71,14.71,0,0,0,7.74-2.14c2.23-1.55,3.7-4.45,2.87-7a6.89,6.89,0,0,0,2.72-11.35Z" class="B"/><path d="M257.78,327.72l.38-4.63,28.31-2.45c8.66,0,17,9.5,16.7,18.14-.37,9.61-1.2,21.33-3.06,28.34-3.74,14.09-14.9,14.79-14.9,14.79l-1,14.2c-.75,8.28-7.89,9.39-16.17,8.65h0a15.06,15.06,0,0,1-13.69-15.85Z" class="J"/><path d="M298.69 349a1.86 1.86 0 0 1-2 1.68 1.77 1.77 0 0 1-1.69-1.88 1.85 1.85 0 0 1 2-1.68 1.77 1.77 0 0 1 1.69 1.88zm.83-4.44c-.25.21-1.54-1-3.51-1.15s-3.53.64-3.72.38.18-.53.86-.93a5.13 5.13 0 0 1 3-.6 4.9 4.9 0 0 1 2.76 1.22c.57.52.74.98.61 1.08zm-19.3 3.25a1.85 1.85 0 0 1-2 1.67 1.77 1.77 0 0 1-1.73-1.85 1.85 1.85 0 0 1 2-1.67 1.77 1.77 0 0 1 1.73 1.85zm-.17-4.87c-.25.22-1.54-.95-3.51-1.15s-3.53.65-3.72.38.18-.52.86-.92a5.05 5.05 0 0 1 3-.6 4.83 4.83 0 0 1 2.77 1.22c.55.52.73.98.6 1.07zm5.68 15.4a12.93 12.93 0 0 1 3.27-.26c.51 0 1-.05 1.12-.38a2.57 2.57 0 0 0-.18-1.53l-1.1-4c-1.52-5.68-2.56-10.34-2.33-10.4s1.64 4.5 3.16 10.19l1 4a2.93 2.93 0 0 1 .06 2 1.25 1.25 0 0 1-.9.65 3.28 3.28 0 0 1-.87 0 13 13 0 0 1-3.23-.27z" class="B"/><path d="M285.2,382a38.2,38.2,0,0,1-19.15-7.16s3.81,10.52,18.77,10.73Z" class="K"/><path d="M281.07 337.41c-.25.51-2.2.06-4.55.1s-4.29.48-4.54 0c-.12-.24.26-.72 1.07-1.16a7.69 7.69 0 0 1 3.46-.83 7.58 7.58 0 0 1 3.47.77c.81.4 1.2.87 1.09 1.12zm19.09.36c-.4.42-1.71-.19-3.35-.38s-3.05 0-3.32-.51c-.12-.24.14-.67.79-1a4.87 4.87 0 0 1 5.38.72c.53.49.67.97.5 1.17zm9.35-11.3a8.94 8.94 0 0 0 4.4-8.83 10.16 10.16 0 0 0-8.2-8.49 9.23 9.23 0 0 0-4.32-1.73 4.85 4.85 0 0 0-3.28-4.14 11.6 11.6 0 0 0-5.53-.34 9.39 9.39 0 0 0-15.12-.88 7.69 7.69 0 0 0-11.8 3.55 7.64 7.64 0 0 0-5.72 2 23.83 23.83 0 0 0-3.09 4.54 8.65 8.65 0 0 0-5.49 15.28 7.89 7.89 0 0 0 .44 12.66 10.12 10.12 0 0 0 0 8 5 5 0 0 0 2.28 2.6 1.9 1.9 0 0 0 .17.56c.72 1.43 2.88 1.06 4.23.2 3.27-2.1 5.28-5.71 6.53-9.39s1.85-7.56 3.06-11.25l.09-.26a10.46 10.46 0 0 1 2.49-4.08 26 26 0 0 0 3.21 2.55 11.47 11.47 0 0 0 13.53-1.27 16.83 16.83 0 0 0 10.25 5c3.85.4 7.74.07 10.95-2.1a5.47 5.47 0 0 0 1.92-2.24 1.64 1.64 0 0 0-1-1.94z" class="B"/><path d="M258.16 346.89c-.18-.11-7.39-3.73-8.56 4.09s6.92 7.37 7 7.15 1.56-11.24 1.56-11.24z" class="J"/><path d="M254.62 354.81s-.15.08-.39.15a1.38 1.38 0 0 1-1-.13c-.78-.43-1.28-1.84-1.11-3.26a4.4 4.4 0 0 1 .67-1.89 1.59 1.59 0 0 1 1.18-.89.71.71 0 0 1 .75.49c.07.24 0 .38 0 .4s.18-.1.17-.43a.86.86 0 0 0-.24-.54 1 1 0 0 0-.72-.31 1.91 1.91 0 0 0-1.6 1 4.75 4.75 0 0 0-.8 2.11c-.18 1.58.4 3.17 1.48 3.67a1.5 1.5 0 0 0 1.28 0c.29-.18.36-.35.33-.37z" class="K"/><path d="M313.65 316.3a1.81 1.81 0 0 1 0 .2 3 3 0 0 1 .07.58 5.83 5.83 0 0 1-.3 2.21 5.93 5.93 0 0 1-2 2.85 6.25 6.25 0 0 1-4.39 1.25l.15-.11a13.46 13.46 0 0 1-4 6.44 10.31 10.31 0 0 1-3.75 2.19 8.7 8.7 0 0 1-4.59.14 15.38 15.38 0 0 1-4.23-1.61 11.76 11.76 0 0 1-3.36-2.61h.23a14.34 14.34 0 0 1-7 2.88 11.23 11.23 0 0 1-5.84-1.19 11.69 11.69 0 0 1-3.16-2.31 9.93 9.93 0 0 1-.69-.78 1.23 1.23 0 0 1-.21-.3s.32.37 1 1a12.14 12.14 0 0 0 3.17 2.2 11.25 11.25 0 0 0 5.72 1.09 14.21 14.21 0 0 0 6.83-2.86l.13-.1.1.13a11.66 11.66 0 0 0 3.27 2.51 15.22 15.22 0 0 0 4.13 1.57 8.43 8.43 0 0 0 4.41-.12 10.18 10.18 0 0 0 3.64-2.12 13.38 13.38 0 0 0 4-6.25v-.12h.12a5.94 5.94 0 0 0 4.22-1.15 5.82 5.82 0 0 0 2-2.72 6.27 6.27 0 0 0 .37-2.15l-.04-.74zM258 311.86a18.19 18.19 0 0 0-1 2.6 11.31 11.31 0 0 0 .38 7.13l.05.12-.11.08a7.32 7.32 0 0 0-2.49 2.92 7 7 0 0 0-.58 4.16 7.31 7.31 0 0 0 2.81 4.58l.14.1-.1.14a9.18 9.18 0 0 0-1.53 4.77 10.06 10.06 0 0 0 .65 4 11.44 11.44 0 0 0 1.87 3.06 1.62 1.62 0 0 1-.18-.16 6.66 6.66 0 0 1-.5-.52 8.92 8.92 0 0 1-1.39-2.3 9.82 9.82 0 0 1-.74-4 9.24 9.24 0 0 1 1.54-4.95v.23a7.58 7.58 0 0 1-3-4.8 7.27 7.27 0 0 1 .62-4.37 7.47 7.47 0 0 1 2.62-3l-.06.19a11.2 11.2 0 0 1-.26-7.3 10.72 10.72 0 0 1 .81-1.93l.29-.47c.07-.1.16-.29.16-.28z" class="I"/><path d="M252.44 357.31a6.63 6.63 0 0 0-.34 1.39 2.14 2.14 0 0 0 .39 1.39 1.75 1.75 0 0 0 1.55.67 1.45 1.45 0 0 0 1.15-1.16 2.83 2.83 0 0 0-.08-1.49l-.5-1.36a3.71 3.71 0 0 1 .74 1.28 2.91 2.91 0 0 1 .16 1.65 2.08 2.08 0 0 1-.44.91 1.61 1.61 0 0 1-1 .53 2 2 0 0 1-1.86-.83 2.29 2.29 0 0 1-.38-1.61 2.13 2.13 0 0 1 .61-1.37z" class="B"/><path d="M280.59,360.68a3.63,3.63,0,0,0,.59,5.92,2.1,2.1,0,0,0,1.33.31c.81-.12,1.36-.87,1.82-1.55l1.14-1.69a.86.86,0,0,0,.21-.64c-.06-.24-.31-.37-.53-.48l-4.37-2.09" class="K"/><path d="M282.46 366.66a4.09 4.09 0 0 1-2-.71 3.32 3.32 0 0 1-1.52-1.88 2.49 2.49 0 0 1 0-1.48 4 4 0 0 1 1.8-2.41l.14-.08.14.08 5 2.91a19.35 19.35 0 0 1-5.31-2.43h.29a3.56 3.56 0 0 0-.95.87 2.63 2.63 0 0 0 .58 4.09c1.06.71 1.87.95 1.83 1.04z" class="B"/><g class="I"><path d="M177.89 460.94l33.18-59.25c5.57-9.7 10.42-13.22 14.78-15.34a34.43 34.43 0 0 1 14.71-3.29l14.11-.11s5.36 8 12.63 9.6c10 2.16 17.53-5.27 17.53-5.27l20.26 8.3L301 433a55.11 55.11 0 0 1-10 26.16l-1.34 1.74-74.7-.07 8.66-26.95-16 27z"/><path d="M305.09,395.58s5.89,3.46,10.33,17.8,14,39.85,14,39.85l24-27.23,14.24,9s-23,39.88-26.62,44.6c-5.44,7-19.19,11.06-27.26,1.71-5.86-6.8-19.89-39.7-19.89-39.7Z"/></g><path d="M296.45 416.37s.1.14.23.43l.53 1.27a37.84 37.84 0 0 1 1.53 4.86 42.87 42.87 0 0 1-4.93 32.43 40.24 40.24 0 0 1-2.89 4.18 9.78 9.78 0 0 1-.89 1l-.35.35a15.09 15.09 0 0 1 1.07-1.53 44.09 44.09 0 0 0 2.74-4.24 44.49 44.49 0 0 0 4.89-32.12 46.86 46.86 0 0 0-1.36-4.87 15 15 0 0 1-.57-1.76zm-68.16-4.58a2 2 0 0 1 0 .52l-.2 1.48-.91 5.42c-.83 4.56-2.19 10.83-4.07 17.66s-3.93 12.91-5.54 17.26c-.81 2.17-1.49 3.92-2 5.12l-.59 1.37a2.9 2.9 0 0 1-.23.47 1.91 1.91 0 0 1 .13-.51c.14-.37.3-.84.5-1.4l1.83-5.18c1.53-4.37 3.51-10.45 5.39-17.27s3.28-13.05 4.21-17.59l1.07-5.38.3-1.46a1.72 1.72 0 0 1 .11-.51z" class="B"/><path d="M192.56 460.89s2.72-3.69 4.06-4.39 3.18-.68 4 .05l.81.72s4.21-1.89 6.24-.43c0 0 4-1.9 5.93.27 0 0 3.09-2 4.4-.26s1.17 4.72.54 6.25-1.82 6.73-2.74 6.82c0 0-2.46.26-2.79-1.07l-.47-2s-.94 4.71-2.08 4.94-3.3.11-3.37-2c0 0-1.05 1.57-2.08 1.11s-2.3-1.21-2.19-2.49l.13-2.55s-.56 1.86-1.49 1.46-1.87-.32-2.39-1.9-1.82-4.6-1.82-4.6z" class="J"/><path d="M202.86 465.82c-.06 0 .19-.51.41-1.33a7.65 7.65 0 0 0 .13-3.27 7.53 7.53 0 0 0-1.3-3l-.85-1.1a3 3 0 0 1 1.08.93 6.65 6.65 0 0 1 1.47 3.1 6.75 6.75 0 0 1-.26 3.43 2.87 2.87 0 0 1-.68 1.24zm5.06-8.96a6.23 6.23 0 0 1 .54 1.86 18.42 18.42 0 0 1-.62 9.24 6.66 6.66 0 0 1-.78 1.77 33.66 33.66 0 0 0 1.28-6.38 32.65 32.65 0 0 0-.42-6.49zm5.77.31a15.27 15.27 0 0 1 .06 5 14.85 14.85 0 0 1-1.19 4.84c-.12 0 .48-2.18.78-4.89l.35-4.95z" class="K"/><path d="M229.47 458.24a1.57 1.57 0 0 0-1.06-.86 3.4 3.4 0 0 0-3.06.82 11.65 11.65 0 0 0-2.23 2.75h6c-.12-.95.68-1.86.35-2.71z" class="J"/><path d="M383.82 375.29h32.08a32.08 32.08 0 1 1-32.14-32.07zm5.71-5.15l-.1-32.08h.1A32.22 32.22 0 0 1 421.6 370z" class="G"/><path d="M202.61 168.72a16.85 16.85 0 0 1 8.62 7.5c3.24 5.73 2.37 8.56 1.53 11.95s-2.34 10.12-2.42 9.68-7.73-29.13-7.73-29.13z" class="C"/><path d="M66.14 98.86h232.89v172.96H66.14z" class="F"/><path d="M299 271.82l-.21-173 .21.21-232.86.05h0l.26-.26v173l-.23-.23 232.88.23-232.88.24h-.27v-.24-173-.22h.28 232.86.22v.22l-.26 173z" class="B"/><path d="M298.63 123c0 .14-51.62.26-115.29.26s-115.29-.08-115.29-.26 51.61-.26 115.29-.26l115.29.26zM81.37 110.41a3.43 3.43 0 1 1-3.43-3.41 3.43 3.43 0 0 1 3.43 3.41zm10.32 0a3.43 3.43 0 1 1-3.42-3.41 3.42 3.42 0 0 1 3.42 3.41zm10.31 0a3.43 3.43 0 1 1-3.41-3.41 3.43 3.43 0 0 1 3.41 3.41z" class="E"/><g class="B"><path d="M195 95c-.77-2.81-2.3-5.57-4.83-7-1.19-.7-2.55-1.08-3.77-1.74a46.08 46.08 0 0 1-4.06-2.95 14.45 14.45 0 0 0-21.12 5.35c-2.84-2.17-7.77-1.25-11.13 0s-6.17 5.21-7 8.69l15.8 4.65a42.19 42.19 0 0 0 10.76 8.86 21.83 21.83 0 0 0 13.5 2.73 14.9 14.9 0 0 0 11.11-7.59 15.53 15.53 0 0 0 .74-11z"/><path d="M206.2 147.15a9.43 9.43 0 0 0 2-13c-.89-1.15-2.1-2.2-2.3-3.64a7.24 7.24 0 0 1 .38-2.63 15.57 15.57 0 0 0-5.71-15.84c-.09-3.23-1.9-10.06-6-12.67L175.93 102q1.27 29.43-.17 58.87c-.15 3-.26 6.24 1.39 8.76 2.33 3.58 7.19 4.32 11.45 4.43a34 34 0 0 0 12.09-1.42c3.85-1.35 7.4-4 9-7.77 2.49-5.75-.07-12.45-3.49-17.72z"/></g><path d="M149.4,107.48l-.56-4.17,24.57-7.67c7.65-1.71,16.92,5.09,18.31,12.81,1.53,8.57,3.07,19.1,2.79,25.66-.57,13.2-10.31,16-10.31,16l1,7.82a14.46,14.46,0,0,1-12.51,16.17h0a14.45,14.45,0,0,1-16.16-12.45Z" class="C"/><path d="M190 118.15a1.67 1.67 0 0 1-1.41 1.86 1.6 1.6 0 0 1-1.88-1.3 1.67 1.67 0 0 1 1.41-1.86 1.58 1.58 0 0 1 1.88 1.3zm-.39-3.88c-.18.24-1.55-.55-3.34-.34s-3 1.26-3.21 1.06.06-.5.58-1a4.58 4.58 0 0 1 2.54-1.12 4.42 4.42 0 0 1 2.69.54c.6.38.83.75.74.86zm-16.27 6.15a1.67 1.67 0 0 1-1.41 1.86A1.61 1.61 0 0 1 170 121a1.67 1.67 0 0 1 1.41-1.86 1.59 1.59 0 0 1 1.93 1.28zm-1.27-3.8c-.18.24-1.55-.54-3.34-.33s-3 1.25-3.21 1 0-.5.58-1a4.55 4.55 0 0 1 2.54-1.11 4.42 4.42 0 0 1 2.69.53c.6.43.83.8.74.91zm8.01 12.52a12 12 0 0 1 2.85-.86c.45-.1.87-.24.91-.56a2.37 2.37 0 0 0-.46-1.32l-1.75-3.32-4.08-8.75c.19-.1 2.33 3.66 4.78 8.4l1.69 3.35a2.63 2.63 0 0 1 .45 1.76 1.18 1.18 0 0 1-.68.76 3.31 3.31 0 0 1-.76.2 12.05 12.05 0 0 1-2.95.34z" class="B"/><path d="M184.2 150.13a34.56 34.56 0 0 1-18.33-2.6s5.42 8.57 18.69 5.84zm-4.38-16.6a3.25 3.25 0 0 0-3-.86 3 3 0 0 0-1.91 1.32 1.89 1.89 0 0 0 .1 2.15 2.18 2.18 0 0 0 2.42.33 7.12 7.12 0 0 0 2.13-1.63 2.15 2.15 0 0 0 .45-.59.6.6 0 0 0-.08-.66" class="D"/><path d="M175 131c.29 0 .52 1.89 2.34 3.08s3.86.73 3.91 1c0 .12-.42.43-1.29.56a5 5 0 0 1-3.25-.73 4.21 4.21 0 0 1-1.83-2.6c-.21-.82-.05-1.31.12-1.31zm-3.28-21.44c-.12.51-1.93.48-4 1s-3.7 1.27-4 .86c-.15-.19.1-.68.73-1.23a6.83 6.83 0 0 1 2.9-1.41 6.92 6.92 0 0 1 3.22 0c.77.22 1.2.54 1.15.78zm16.64-.39c-.27.44-1.55.16-3 .31s-2.7.59-3 .19c-.15-.19 0-.62.51-1.06a4.4 4.4 0 0 1 4.89-.41c.49.35.71.8.6.97zm-36.17-14.7c-2.55.83-5.43 7.78-4.68 10.36a7.91 7.91 0 0 0 5.74 5.1 14.89 14.89 0 0 0 7.93-.51c3.63-1.11 7.46-3.61 7.71-7.39a14.76 14.76 0 0 0 13.88 3.81c4.86-1.25 8.46-8.69 9.82-13.52z" class="B"/><g class="I"><path d="M177.34 120.49c-.06 0 0-.66-.33-1.77a7.38 7.38 0 0 0-2.68-3.93 7.12 7.12 0 0 0-10.05 9.89 7.15 7.15 0 0 0 7 2.81 7.16 7.16 0 0 0 3-1.31 7.32 7.32 0 0 0 2.68-3.92c.3-1.12.27-1.77.33-1.77a1.43 1.43 0 0 1 0 .47 5.62 5.62 0 0 1-.16 1.35 7.43 7.43 0 0 1-5.82 5.61 7.6 7.6 0 0 1-4-.3 7.42 7.42 0 0 1-3.54-2.64 7.53 7.53 0 0 1 0-9 7.55 7.55 0 0 1 7.52-2.93 7.43 7.43 0 0 1 5.82 5.61 5.62 5.62 0 0 1 .16 1.35 1.43 1.43 0 0 1 .07.48zm18.4-3.32c-.06 0 0-.65-.33-1.77a7.26 7.26 0 0 0-2.68-3.92 7.16 7.16 0 0 0-6.76-1 7 7 0 0 0-3.29 2.48 7.12 7.12 0 0 0 3.32 10.89 7.22 7.22 0 0 0 9.44-4.91c.3-1.11.27-1.77.33-1.77a1.43 1.43 0 0 1 0 .47 5.62 5.62 0 0 1-.16 1.35 7.43 7.43 0 0 1-5.82 5.61 7.55 7.55 0 0 1-7.52-2.93 7.57 7.57 0 0 1 0-9 7.44 7.44 0 0 1 3.54-2.63 7.61 7.61 0 0 1 4-.31 7.43 7.43 0 0 1 5.82 5.61 5.62 5.62 0 0 1 .16 1.35 1.43 1.43 0 0 1-.05.48zm-19.5-.73c-.06 0-.07-.35.17-.83a2.72 2.72 0 0 1 3.65-1.14c.47.26.66.55.61.59s-.31-.11-.76-.25a2.94 2.94 0 0 0-1.75 0 3 3 0 0 0-1.44 1c-.28.37-.4.65-.48.63z"/><path d="M162.39,122.23a9.45,9.45,0,0,1-2.83,1.22,9.16,9.16,0,0,1-3,.73,18.35,18.35,0,0,1,5.83-2Z"/></g><g class="C"><path d="M289.77 144.62a2.3 2.3 0 0 0 1.27-3.06l-8 2.4a31.18 31.18 0 0 0 6.41-3.49c2.17-1.78 1.09-3.32 1.09-3.32l-8.23 3.17-4.66 2.74L266 160.85s9.11 4.45 10.72 3.17c2.83-2.26 4.38-7.3 5-9.86a34.28 34.28 0 0 0 5.71-2 5.34 5.34 0 0 0 1.71-1.93l-6.34 1.21c.92-.27 6.8-2.28 7.26-3 .82-1.27.31-1.83.31-1.83l-8 1.24.82-.6 6.58-2.63zm-29.34 18.52l-26.81 24.55c-3.33-.77-44.15-25.17-44.15-25.17l-6.47 31.4s41.78 19.21 53.28 16.88c1.88-.38 5-.62 6.9-3.11 9.2-11.82 28.71-41.07 28.71-41.07z"/><path d="M278.65 161.91l-4.84-2.33 3.49-6.34 2.74-5.79 4.25-7.89-6.47 2.44a5.05 5.05 0 0 0-2 1.49l-10.65 14.71-4.68 4.8 4.51 12.27 5.36-8.36 3.13-.73c3.18-.73 5.16-4.27 5.16-4.27z"/><path d="M270.87,152a40.14,40.14,0,0,1,6.94-2.72,6,6,0,0,1,2.4-.31,2.18,2.18,0,0,1,1.82,1.42,2.27,2.27,0,0,1-1.11,2.34,8.72,8.72,0,0,1-2.61.92,4.52,4.52,0,0,0-2.41,1.27,7.57,7.57,0,0,0-1,2.38,8.35,8.35,0,0,1-6.16,5.29"/></g><path d="M268.71 162.54l1.16-.42a8.62 8.62 0 0 0 2.79-1.82 8.29 8.29 0 0 0 1.41-1.81 11.07 11.07 0 0 0 1-2.46 4 4 0 0 1 .72-1.35 3.5 3.5 0 0 1 1.32-.92c1-.44 2.09-.54 3.05-.94a3 3 0 0 0 1.23-.86 1.91 1.91 0 0 0 .48-1.28 1.89 1.89 0 0 0-1.87-1.56 7.29 7.29 0 0 0-2.56.44l-2.23.71-3.16 1.22a8.49 8.49 0 0 1-1.16.46 5 5 0 0 1 1.08-.63c.72-.36 1.78-.85 3.12-1.37l2.23-.77a7.71 7.71 0 0 1 2.72-.5 2.92 2.92 0 0 1 1.47.53 2 2 0 0 1 .82 1.45 2.84 2.84 0 0 1-2 2.59c-1.07.44-2.15.54-3.06.93a3.34 3.34 0 0 0-1.16.8 3.67 3.67 0 0 0-.65 1.2 11.74 11.74 0 0 1-1 2.51 8.17 8.17 0 0 1-1.52 1.85 8.07 8.07 0 0 1-2.95 1.75 6.65 6.65 0 0 1-.91.23c-.26.03-.37.04-.37.02z" class="D"/><path d="M186.43 250.87h-55A140.6 140.6 0 0 0 118 271.72l78.32.32c1.56-2.52-9.89-21.17-9.89-21.17z" class="B"/><path d="M202.68 200.91c-1.86-24.6-8-40.06-8-40.06l-9.52-2.93h0c-1.44 6.29-11.69 8.37-17.52 5.62l-6.17-3.23c-19.81-3-18.79-1.33-23.37 1.42-4 2.39-3.61 20.24-3.61 20.24s-9.87 46.5-9.33 53.95 6.28 15 6.28 15h55c5.54 0 7.12-12.51 6.73-17.05s10.12-24.87 9.51-32.96z" class="G"/><path d="M150.5 216.39a4.06 4.06 0 0 0 .92.78 16.82 16.82 0 0 0 2.84 1.66 17.35 17.35 0 0 0 4.69 1.41 16.41 16.41 0 0 0 6-.26 19.78 19.78 0 0 0 9.33-5.42 21.24 21.24 0 0 0 2.14-2.49 3.9 3.9 0 0 0 .64-1c-.08-.06-1.08 1.34-3.07 3.22a20.59 20.59 0 0 1-9.17 5.14 16.7 16.7 0 0 1-10.39-1c-2.52-1.05-3.87-2.13-3.93-2.04z" class="B"/><g class="H"><path d="M176.15,212.32a16,16,0,0,1-5.65,10.8,13.27,13.27,0,0,1-11.76,2.56,11.38,11.38,0,0,1-8-8.73,33.86,33.86,0,0,0,8.77,3.06,17.22,17.22,0,0,0,16.93-8l-.45.47"/></g><path d="M113.42 199.77l27.69 13s11.29-25 12.26-28.39 4-8.82.9-15.94-11.49-9.73-16.13-6.7c-10.36 6.78-24.72 38.03-24.72 38.03zm87.07 1.32c1.3 0 16.14 7.77 16.14 7.77l8.46-28c-12.63-8.42-23-18-30.37-20L198.6 184z" class="G"/><path d="M113.42 199.77a2.58 2.58 0 0 1 .55.2l1.53.65 5.6 2.48 18.38 8.38 2.24 1-.35.13 8-16.73 2.32-5 .62-1.36a1.81 1.81 0 0 1 .25-.46 2.66 2.66 0 0 1-.16.5l-.53 1.4a181.65 181.65 0 0 1-2.17 5.1c-1.9 4.29-4.64 10.22-7.83 16.81l-.11.24-.24-.11-2.24-1-18.32-8.53-5.52-2.63-1.49-.75a2.08 2.08 0 0 1-.53-.32zM198 178.1a14.52 14.52 0 0 1 .57 1.72l1.46 4.73c1.2 4 3 9.59 3 16a33.87 33.87 0 0 1-1.48 8.91c-.77 2.67-1.66 5-2.42 7s-1.42 3.5-1.87 4.58a11.37 11.37 0 0 1-.75 1.66 1.65 1.65 0 0 1 .12-.46l.44-1.27 1.71-4.64c.71-1.9 1.57-4.3 2.31-7a34.61 34.61 0 0 0 1.42-8.78c-.08-6.35-1.75-11.94-2.87-15.95l-1.29-4.77a21.3 21.3 0 0 1-.31-1.31 1.31 1.31 0 0 1-.04-.42zm-23.46-5.58a18.29 18.29 0 0 0-5.47-10.74c-1.44-1.44-3.16-2.88-3.44-4.89-.36-2.61 1.9-5 1.53-7.66-.45-3.26-4.53-4.67-6-7.62-2-4 1.45-9.11-.65-13-1.26-2.35-4.28-3.61-4.88-6.2-.4-1.68 2.8-4.12 3.55-7.76 1.67-8.19 2.52-14.52-5.43-19.29L149.12 89c-5.2 2.54-9.57 8.25-9.66 14.22-.05 2.83 1.4 5.66.17 8.2-1.71 3.54-5.71 5.73-6.92 9.48-1.72 5.36 3 11.36 1 16.6-1.23 3.09-4.45 4.86-6.48 7.49a11.45 11.45 0 0 0 .73 14.34 14.43 14.43 0 0 0-5.43 16.14c.83 2.43 2.7 4.83 5.26 5 3.67.2 5.76-4 8.45-6.46a11.44 11.44 0 0 1 15.45.41c2.82 2.92 4 7.33 7.25 9.72s8.23 2 11.42-.6a12.63 12.63 0 0 0 4.18-11.02z" class="B"/><path d="M138.4 211c-5.25 8.62-8.91 13.58-8.91 13.58l47 28.64-5.49 12.72-61-25.11s-6-6.19-3.89-13.08l9.72-26.84z" class="C"/><path d="M118.05,228.94c.11.15,2.34-1.72,5.63-2.92s6.19-1.27,6.18-1.46a15.3,15.3,0,0,0-11.81,4.38Z" class="D"/><path d="M213,261.93l-11.73-5.61-22.89-1.82-1.87-1.29L171,265.94s6,2.87,9.15,3.12l19.24-.58,10.06,1Z" class="C"/><path d="M279 216.75l-66 .53c-2.14 0-4.19 1-4.51 3.15l-7.21 48.09h-34a2 2 0 0 0 0 4h108.58l7.42-50.76a4.33 4.33 0 0 0-4.28-5.01z" class="E"/><path d="M279 216.75a3.41 3.41 0 0 1 1 .09 4.38 4.38 0 0 1 2.52 1.68 4.22 4.22 0 0 1 .81 2.1 11.94 11.94 0 0 1-.24 2.72l-.95 6.69-6.12 42.49v.17h-.18l-105.32.06h-2.82a2.68 2.68 0 0 1-1.49-.28 2.25 2.25 0 0 1 0-3.93 2.7 2.7 0 0 1 1.49-.28h33.59l-.25.22 7.18-47.71a3.73 3.73 0 0 1 1.23-2.51 4.85 4.85 0 0 1 2.52-1.12 21.83 21.83 0 0 1 2.66-.09h2.59l9.94-.07 17.65-.11 25.14-.13h8.46.59-.59-1.74l-6.72.1-25.14.28-17.65.17-9.94.1h-2.59a20.11 20.11 0 0 0-2.59.1 4.49 4.49 0 0 0-2.3 1 3.28 3.28 0 0 0-1.08 2.25l-7.12 47.72v.22H167.7a2.32 2.32 0 0 0-1.23.21 1.72 1.72 0 0 0 0 3 2.28 2.28 0 0 0 1.24.22h2.84l105.32.06-.2.18 6.29-42.46 1-6.69a13.13 13.13 0 0 0 .27-2.67 4.33 4.33 0 0 0-3.23-3.63 6.51 6.51 0 0 0-1-.15z" class="B"/><circle cx="243.2" cy="244.01" r="4.13" class="F"/><path d="M204 272c.1 0 2.2-12.23 4.69-27.35l4.36-27.41c-.09-.02-2.2 12.23-4.69 27.36L204 272z" class="B"/><path d="M469.28,282.59l-12.65-.28a29.49,29.49,0,1,0,3.12,10.09v0Z" class="L"/><path d="M469.28 282.59l-9.46 9.89-.1.1-.05-.13h0l.17-.05a30.22 30.22 0 0 1 0 7.07 29.51 29.51 0 0 1-2.17 8.12 26.54 26.54 0 0 1-2.19 4.13l-1.37 2-1.6 1.95a29.69 29.69 0 0 1-19.51 9.75 29.41 29.41 0 0 1-12.33-1.57 30.12 30.12 0 0 1-11.07-7 29.14 29.14 0 0 1-7.16-11.64l-.51-1.71c-.18-.56-.26-1.16-.39-1.74a17.13 17.13 0 0 1-.31-1.74l-.18-1.76a11.34 11.34 0 0 1-.08-1.75v-1.75l.15-1.73a16.82 16.82 0 0 1 .21-1.72 30.21 30.21 0 0 1 5-12.37 29.14 29.14 0 0 1 9.3-8.57 29.91 29.91 0 0 1 21.94-3.17 31.93 31.93 0 0 1 8.88 3.82 29.1 29.1 0 0 1 6.36 5.48 30.27 30.27 0 0 1 3.93 5.79h-.08l12.65.37-12.65-.2h-.05 0a30 30 0 0 0-3.93-5.73 29.16 29.16 0 0 0-6.33-5.41 31.71 31.71 0 0 0-8.82-3.76 29.68 29.68 0 0 0-21.7 3.19 28.8 28.8 0 0 0-9.18 8.48 29.71 29.71 0 0 0-5 12.23 13.85 13.85 0 0 0-.21 1.7l-.14 1.71c-.05.57 0 1.15 0 1.72a12.67 12.67 0 0 0 .08 1.74l.18 1.73a16.75 16.75 0 0 0 .31 1.72l.38 1.72.51 1.69a28.76 28.76 0 0 0 7.07 11.5 29.77 29.77 0 0 0 10.93 6.94 29 29 0 0 0 12.18 1.56 29.46 29.46 0 0 0 19.4-9.59l1.59-1.92 1.36-2a26.48 26.48 0 0 0 2.19-4.08 29.85 29.85 0 0 0 2.18-8 30.57 30.57 0 0 0 0-7l-.08-.68.25.64h0-.15zm-47.49 12.59a3 3 0 1 1-3-3 3 3 0 0 1 3 3zm11.97 0a3 3 0 1 1-3-3 3 3 0 0 1 3 3zm11.94-1.5a3 3 0 1 1-4.08-1.09 3 3 0 0 1 4.08 1.09z" class="B"/><path d="M236.25,361.93l-6.25-11a29.48,29.48,0,1,0-7.06,7.86v0Z" class="L"/><path d="M236.25 361.93l-13.35-3.05h-.13l.08-.11h0l.13.12a29.2 29.2 0 0 1-14.13 6 26.52 26.52 0 0 1-4.67.24l-2.44-.13-2.49-.38a29.71 29.71 0 0 1-18.41-11.82 29.48 29.48 0 0 1-5-11.38 30.09 30.09 0 0 1 .35-13.1 29.09 29.09 0 0 1 6.32-12.12l1.2-1.32c.39-.45.87-.81 1.29-1.22s.86-.83 1.34-1.17l1.41-1.05a12.87 12.87 0 0 1 1.47-1l1.49-.91 1.57-.76a13.09 13.09 0 0 1 1.58-.7 30 30 0 0 1 13.2-2 29.1 29.1 0 0 1 12.12 3.58 29.93 29.93 0 0 1 14 17.21 31.76 31.76 0 0 1 1.28 9.58 29.5 29.5 0 0 1-1.44 8.27 29.9 29.9 0 0 1-3 6.34v-.09l6.17 11.05-6.33-11v-.05h0a30.2 30.2 0 0 0 2.9-6.32 29.11 29.11 0 0 0 1.39-8.21 31.51 31.51 0 0 0-1.3-9.49 29.63 29.63 0 0 0-13.87-17 28.94 28.94 0 0 0-12-3.52 29.69 29.69 0 0 0-13 2 13.54 13.54 0 0 0-1.56.7l-1.55.75-1.47.9a12.46 12.46 0 0 0-1.45.95l-1.39 1.05a16 16 0 0 0-1.32 1.15l-1.28 1.2-1.19 1.31a28.67 28.67 0 0 0-6.24 12 29.67 29.67 0 0 0-.35 12.94 29.17 29.17 0 0 0 4.9 11.26 29.56 29.56 0 0 0 18.2 11.73l2.46.38 2.42.14a27 27 0 0 0 4.62-.22 29.26 29.26 0 0 0 8-2.25 30.23 30.23 0 0 0 6-3.6l.55-.42-.42.55h0l-.05-.14zm-39.63-26.44a3 3 0 1 1-3-3 3 3 0 0 1 3 3zm11.97 0a3 3 0 1 1-3-3 3 3 0 0 1 3 3zm11.94-1.49a3 3 0 1 1-4.09-1.1 3 3 0 0 1 4.09 1.1z" class="B"/><defs ><path id="B" d="M506,209.48l21.7-52.36c1-2.39-.25-4.33-2.78-4.33h-4.36c-1.78,0-3-1-3.11-2.51l-.15-1.92c-.11-1.54-1.33-2.52-3.11-2.52H493.4a7.24,7.24,0,0,0-4.8,2.13l-1.69,1.63a7.23,7.23,0,0,1-4.8,2.12H455.69a7.38,7.38,0,0,0-6.31,4.33l-21.51,53.43Z"/></defs></svg>